Units are S.I. units (second, meters, Newtons, ...)
Angles are in degrees.
name walk
datarows 80
datacolumns 13
range 7.500000 8.774194
endheader
time exo_pelvis_tx exo_pelvis_ty exo_pelvis_tz exo_pelvis_tilt exo_pelvis_list exo_pelvis_rotation exo_hip_r exo_hip_l exo_knee_r exo_knee_l r_ankle_coupling l_ankle_coupling
7.500000	0.596045	0.932373	0.000000	0.000000	0.000000	0.000000	-5.615700	22.202490	-5.695690	-36.716230	11.310287	14.512590
7.516129	0.598368	0.932148	0.000000	0.000000	0.000000	0.000000	-5.879297	22.095914	-5.525235	-36.226932	11.403427	14.129868
7.532258	0.600690	0.931922	0.000000	0.000000	0.000000	0.000000	-6.142894	21.989338	-5.354780	-35.737634	11.496568	13.747145
7.548387	0.603013	0.931696	0.000000	0.000000	0.000000	0.000000	-6.406491	21.882763	-5.184326	-35.248336	11.589709	13.364423
7.564516	0.605335	0.931470	0.000000	0.000000	0.000000	0.000000	-6.670088	21.776187	-5.013871	-34.759038	11.682850	12.981700
7.580645	0.607658	0.931244	0.000000	0.000000	0.000000	0.000000	-6.933685	21.669611	-4.843416	-34.269740	11.775990	12.598978
7.596774	0.609980	0.931019	0.000000	0.000000	0.000000	0.000000	-7.197283	21.563035	-4.672961	-33.780442	11.869131	12.216256
7.612903	0.612303	0.930793	0.000000	0.000000	0.000000	0.000000	-7.460880	21.456459	-4.502506	-33.291144	11.962272	11.833533
7.629032	0.614626	0.930567	0.000000	0.000000	0.000000	0.000000	-7.724477	21.349884	-4.332051	-32.801845	12.055413	11.450811
7.645161	0.616948	0.930341	0.000000	0.000000	0.000000	0.000000	-7.988074	21.243308	-4.161597	-32.312547	12.148553	11.068089
7.661290	0.619271	0.930115	0.000000	0.000000	0.000000	0.000000	-8.251671	21.136732	-3.991142	-31.823249	12.241694	10.685366
7.677419	0.621593	0.929890	0.000000	0.000000	0.000000	0.000000	-8.515268	21.030156	-3.820687	-31.333951	12.334835	10.302644
7.693548	0.623916	0.929664	0.000000	0.000000	0.000000	0.000000	-8.778865	20.923580	-3.650232	-30.844653	12.427976	9.919921
7.709677	0.626239	0.929438	0.000000	0.000000	0.000000	0.000000	-9.042462	20.817005	-3.479777	-30.355355	12.521116	9.537199
7.725806	0.628561	0.929212	0.000000	0.000000	0.000000	0.000000	-9.306059	20.710429	-3.309323	-29.866057	12.614257	9.154477
7.741935	0.630884	0.928986	0.000000	0.000000	0.000000	0.000000	-9.569656	20.603853	-3.138868	-29.376759	12.707398	8.771754
7.758065	0.633206	0.928760	0.000000	0.000000	0.000000	0.000000	-9.833254	20.497277	-2.968413	-28.887461	12.800539	8.389032
7.774194	0.635529	0.928535	0.000000	0.000000	0.000000	0.000000	-10.096851	20.390701	-2.797958	-28.398163	12.893679	8.006309
7.790323	0.637851	0.928309	0.000000	0.000000	0.000000	0.000000	-10.360448	20.284125	-2.627503	-27.908865	12.986820	7.623587
7.806452	0.640174	0.928083	0.000000	0.000000	0.000000	0.000000	-10.624045	20.177550	-2.457048	-27.419567	13.079961	7.240865
7.822581	0.642497	0.927857	0.000000	0.000000	0.000000	0.000000	-10.887642	20.070974	-2.286594	-26.930269	13.173102	6.858142
7.838710	0.644819	0.927631	0.000000	0.000000	0.000000	0.000000	-11.151239	19.964398	-2.116139	-26.440971	13.266242	6.475420
7.854839	0.647142	0.927406	0.000000	0.000000	0.000000	0.000000	-11.414836	19.857822	-1.945684	-25.951673	13.359383	6.092697
7.870968	0.649464	0.927180	0.000000	0.000000	0.000000	0.000000	-11.678433	19.751246	-1.775229	-25.462375	13.452524	5.709975
7.887097	0.651787	0.926954	0.000000	0.000000	0.000000	0.000000	-11.942030	19.644671	-1.604774	-24.973076	13.545665	5.327253
7.903226	0.654110	0.926728	0.000000	0.000000	0.000000	0.000000	-12.205627	19.538095	-1.434320	-24.483778	13.638805	4.944530
7.919355	0.656432	0.926502	0.000000	0.000000	0.000000	0.000000	-12.469225	19.431519	-1.263865	-23.994480	13.731946	4.561808
7.935484	0.658755	0.926277	0.000000	0.000000	0.000000	0.000000	-12.732822	19.324943	-1.093410	-23.505182	13.825087	4.179086
7.951613	0.661077	0.926051	0.000000	0.000000	0.000000	0.000000	-12.996419	19.218367	-0.922955	-23.015884	13.918228	3.796363
7.967742	0.663400	0.925825	0.000000	0.000000	0.000000	0.000000	-13.260016	19.111792	-0.752500	-22.526586	14.011368	3.413641
7.983871	0.665722	0.925599	0.000000	0.000000	0.000000	0.000000	-13.523613	19.005216	-0.582046	-22.037288	14.104509	3.030918
8.000000	0.668045	0.925373	0.000000	0.000000	0.000000	0.000000	-13.787210	18.898640	-0.411591	-21.547990	14.197650	2.648196
8.016129	0.672239	0.925728	0.000000	0.000000	0.000000	0.000000	-12.836555	18.515689	-1.389124	-21.442051	14.224543	2.915530
8.032258	0.676432	0.926083	0.000000	0.000000	0.000000	0.000000	-11.885901	18.132739	-2.366656	-21.336113	14.251436	3.182865
8.048387	0.680626	0.926438	0.000000	0.000000	0.000000	0.000000	-10.935246	17.749788	-3.344189	-21.230174	14.278330	3.450199
8.064516	0.684819	0.926793	0.000000	0.000000	0.000000	0.000000	-9.984592	17.366837	-4.321722	-21.124235	14.305223	3.717533
8.080645	0.689013	0.927148	0.000000	0.000000	0.000000	0.000000	-9.033937	16.983887	-5.299255	-21.018296	14.332116	3.984868
8.096774	0.693206	0.927502	0.000000	0.000000	0.000000	0.000000	-8.083283	16.600936	-6.276788	-20.912358	14.359009	4.252202
8.112903	0.697400	0.927857	0.000000	0.000000	0.000000	0.000000	-7.132628	16.217985	-7.254321	-20.806419	14.385903	4.519536
8.129032	0.701593	0.928212	0.000000	0.000000	0.000000	0.000000	-6.181974	15.835035	-8.231854	-20.700480	14.412796	4.786870
8.145161	0.705787	0.928567	0.000000	0.000000	0.000000	0.000000	-5.231319	15.452084	-9.209387	-20.594542	14.439689	5.054205
8.161290	0.709980	0.928922	0.000000	0.000000	0.000000	0.000000	-4.280665	15.069134	-10.186920	-20.488603	14.466582	5.321539
8.177419	0.714174	0.929277	0.000000	0.000000	0.000000	0.000000	-3.330010	14.686183	-11.164452	-20.382664	14.493475	5.588873
8.193548	0.718368	0.929631	0.000000	0.000000	0.000000	0.000000	-2.379356	14.303232	-12.141985	-20.276725	14.520369	5.856208
8.209677	0.722561	0.929986	0.000000	0.000000	0.000000	0.000000	-1.428701	13.920282	-13.119518	-20.170787	14.547262	6.123542
8.225806	0.726755	0.930341	0.000000	0.000000	0.000000	0.000000	-0.478047	13.537331	-14.097051	-20.064848	14.574155	6.390876
8.241935	0.730948	0.930696	0.000000	0.000000	0.000000	0.000000	0.472608	13.154380	-15.074584	-19.958909	14.601048	6.658211
8.258065	0.735142	0.931051	0.000000	0.000000	0.000000	0.000000	1.423262	12.771430	-16.052117	-19.852971	14.627942	6.925545
8.274194	0.739335	0.931406	0.000000	0.000000	0.000000	0.000000	2.373917	12.388479	-17.029650	-19.747032	14.654835	7.192879
8.290323	0.743529	0.931760	0.000000	0.000000	0.000000	0.000000	3.324571	12.005528	-18.007183	-19.641093	14.681728	7.460214
8.306452	0.747722	0.932115	0.000000	0.000000	0.000000	0.000000	4.275226	11.622578	-18.984715	-19.535155	14.708621	7.727548
8.322581	0.751916	0.932470	0.000000	0.000000	0.000000	0.000000	5.225880	11.239627	-19.962248	-19.429216	14.735515	7.994882
8.338710	0.756110	0.932825	0.000000	0.000000	0.000000	0.000000	6.176535	10.856676	-20.939781	-19.323277	14.762408	8.262216
8.354839	0.760303	0.933180	0.000000	0.000000	0.000000	0.000000	7.127189	10.473726	-21.917314	-19.217338	14.789301	8.529551
8.370968	0.764497	0.933535	0.000000	0.000000	0.000000	0.000000	8.077844	10.090775	-22.894847	-19.111400	14.816194	8.796885
8.387097	0.768690	0.933890	0.000000	0.000000	0.000000	0.000000	9.028498	9.707825	-23.872380	-19.005461	14.843087	9.064219
8.403226	0.772884	0.934244	0.000000	0.000000	0.000000	0.000000	9.979153	9.324874	-24.849913	-18.899522	14.869981	9.331554
8.419355	0.777077	0.934599	0.000000	0.000000	0.000000	0.000000	10.929807	8.941923	-25.827446	-18.793584	14.896874	9.598888
8.435484	0.781271	0.934954	0.000000	0.000000	0.000000	0.000000	11.880462	8.558973	-26.804978	-18.687645	14.923767	9.866222
8.451613	0.785464	0.935309	0.000000	0.000000	0.000000	0.000000	12.831116	8.176022	-27.782511	-18.581706	14.950660	10.133557
8.467742	0.789658	0.935664	0.000000	0.000000	0.000000	0.000000	13.781771	7.793071	-28.760044	-18.475767	14.977554	10.400891
8.483871	0.793851	0.936019	0.000000	0.000000	0.000000	0.000000	14.732425	7.410121	-29.737577	-18.369829	15.004447	10.668225
8.500000	0.798045	0.936373	0.000000	0.000000	0.000000	0.000000	15.683080	7.027170	-30.715110	-18.263890	15.031340	10.935560
8.516129	0.798755	0.936406	0.000000	0.000000	0.000000	0.000000	15.902442	6.882930	-31.241063	-18.093435	15.337953	10.919023
8.532258	0.799464	0.936438	0.000000	0.000000	0.000000	0.000000	16.121805	6.738689	-31.767016	-17.922980	15.644566	10.902486
8.548387	0.800174	0.936470	0.000000	0.000000	0.000000	0.000000	16.341167	6.594449	-32.292970	-17.752525	15.951180	10.885950
8.564516	0.800884	0.936502	0.000000	0.000000	0.000000	0.000000	16.560529	6.450209	-32.818923	-17.582071	16.257793	10.869413
8.580645	0.801593	0.936535	0.000000	0.000000	0.000000	0.000000	16.779891	6.305968	-33.344876	-17.411616	16.564406	10.852876
8.596774	0.802303	0.936567	0.000000	0.000000	0.000000	0.000000	16.999254	6.161728	-33.870829	-17.241161	16.871019	10.836340
8.612903	0.803013	0.936599	0.000000	0.000000	0.000000	0.000000	17.218616	6.017488	-34.396783	-17.070706	17.177633	10.819803
8.629032	0.803722	0.936631	0.000000	0.000000	0.000000	0.000000	17.437978	5.873247	-34.922736	-16.900251	17.484246	10.803266
8.645161	0.804432	0.936664	0.000000	0.000000	0.000000	0.000000	17.657340	5.729007	-35.448689	-16.729796	17.790859	10.786730
8.661290	0.805142	0.936696	0.000000	0.000000	0.000000	0.000000	17.876703	5.584767	-35.974642	-16.559342	18.097472	10.770193
8.677419	0.805851	0.936728	0.000000	0.000000	0.000000	0.000000	18.096065	5.440526	-36.500595	-16.388887	18.404085	10.753656
8.693548	0.806561	0.936760	0.000000	0.000000	0.000000	0.000000	18.315427	5.296286	-37.026549	-16.218432	18.710699	10.737120
8.709677	0.807271	0.936793	0.000000	0.000000	0.000000	0.000000	18.534789	5.152046	-37.552502	-16.047977	19.017312	10.720583
8.725806	0.807980	0.936825	0.000000	0.000000	0.000000	0.000000	18.754152	5.007805	-38.078455	-15.877522	19.323925	10.704046
8.741935	0.808690	0.936857	0.000000	0.000000	0.000000	0.000000	18.973514	4.863565	-38.604408	-15.707067	19.630538	10.687510
8.758065	0.809400	0.936890	0.000000	0.000000	0.000000	0.000000	19.192876	4.719325	-39.130362	-15.536613	19.937152	10.670973
8.774194	0.810110	0.936922	0.000000	0.000000	0.000000	0.000000	19.412238	4.575085	-39.656315	-15.366158	20.243765	10.654436
